<svg xmlns="http://www.w3.org/2000/svg" viewBox="0 0 469 531" fill="red" stroke="none">
<path d="M 401,280 L 400,281 L 400,284 L 399,285 L 399,287 L 398,288 L 398,289 L 397,290 L 397,292 L 396,293 L 396,295 L 395,296 L 395,298 L 394,299 L 394,302 L 440,348 L 441,348 L 442,349 L 444,349 L 445,348 L 446,349 L 446,370 L 447,371 L 447,403 L 448,404 L 450,404 L 452,402 L 452,401 L 455,398 L 455,395 L 454,394 L 454,390 L 455,389 L 455,377 L 454,376 L 455,375 L 455,373 L 454,372 L 454,332 L 419,297 L 419,296 L 418,296 L 411,289 L 411,288 L 410,288 L 404,282 L 404,281 L 403,281 L 402,280 Z"/>
<path d="M 65,280 L 26,319 L 25,319 L 24,320 L 24,321 L 22,323 L 21,323 L 17,327 L 17,328 L 16,329 L 15,329 L 15,330 L 14,331 L 13,331 L 13,332 L 12,333 L 12,399 L 17,404 L 19,404 L 20,403 L 20,349 L 21,348 L 23,348 L 24,349 L 25,348 L 27,348 L 56,319 L 57,319 L 57,318 L 71,304 L 72,304 L 72,303 L 73,302 L 74,302 L 74,301 L 73,300 L 73,298 L 72,297 L 72,295 L 71,294 L 71,293 L 70,292 L 70,290 L 69,289 L 69,287 L 68,286 L 68,284 L 67,283 L 67,281 L 66,280 Z"/>
<path d="M 299,263 L 298,264 L 297,264 L 296,265 L 295,265 L 293,267 L 293,269 L 294,270 L 294,271 L 296,273 L 296,274 L 298,276 L 298,277 L 300,279 L 300,280 L 301,281 L 301,282 L 304,285 L 304,286 L 305,287 L 305,288 L 307,290 L 307,291 L 309,293 L 309,294 L 311,296 L 311,297 L 313,299 L 313,300 L 314,301 L 314,303 L 307,310 L 307,311 L 303,315 L 303,430 L 301,432 L 301,433 L 296,438 L 296,459 L 295,460 L 295,514 L 297,514 L 304,507 L 304,487 L 305,486 L 305,459 L 309,455 L 309,454 L 310,453 L 311,453 L 323,441 L 323,440 L 324,439 L 324,399 L 325,398 L 325,319 L 326,318 L 326,303 L 325,302 L 325,301 L 323,299 L 323,298 L 322,297 L 322,296 L 321,295 L 321,294 L 318,291 L 318,290 L 316,288 L 316,287 L 314,285 L 314,284 L 313,283 L 313,282 L 310,279 L 310,278 L 307,275 L 307,273 L 305,271 L 305,270 L 303,268 L 303,267 L 300,264 L 300,263 Z"/>
<path d="M 169,263 L 167,265 L 167,266 L 164,269 L 164,270 L 163,271 L 163,272 L 161,274 L 161,275 L 159,277 L 159,278 L 156,281 L 156,282 L 155,283 L 155,284 L 153,286 L 153,287 L 151,289 L 151,290 L 148,293 L 148,294 L 147,295 L 147,296 L 145,298 L 145,299 L 143,301 L 143,305 L 142,306 L 143,307 L 143,308 L 142,309 L 142,310 L 143,311 L 143,360 L 144,361 L 144,377 L 143,378 L 143,380 L 144,381 L 144,439 L 163,458 L 163,476 L 164,477 L 164,505 L 165,506 L 165,507 L 168,510 L 168,511 L 171,514 L 173,514 L 174,513 L 174,471 L 173,470 L 173,439 L 172,438 L 172,437 L 171,436 L 170,436 L 169,435 L 169,434 L 166,431 L 166,372 L 165,371 L 165,318 L 166,317 L 165,316 L 165,314 L 154,303 L 154,301 L 156,299 L 156,298 L 158,296 L 158,295 L 160,293 L 160,292 L 161,291 L 161,290 L 164,287 L 164,286 L 166,284 L 166,283 L 168,281 L 168,280 L 169,279 L 169,278 L 172,275 L 172,274 L 174,272 L 174,271 L 175,270 L 175,269 L 176,268 L 176,267 L 175,266 L 174,266 L 172,264 L 171,264 L 170,263 Z"/>
<path d="M 319,250 L 318,251 L 317,251 L 314,254 L 313,254 L 312,255 L 311,255 L 310,256 L 309,256 L 308,257 L 308,260 L 309,261 L 309,262 L 311,264 L 311,265 L 313,267 L 313,268 L 315,270 L 315,271 L 317,273 L 317,274 L 318,275 L 318,276 L 321,279 L 321,280 L 323,282 L 323,283 L 325,285 L 325,286 L 326,287 L 326,288 L 329,291 L 329,292 L 331,294 L 331,295 L 332,296 L 332,297 L 335,300 L 346,300 L 347,301 L 350,301 L 351,300 L 353,300 L 354,301 L 360,301 L 361,300 L 365,300 L 366,301 L 389,301 L 390,300 L 390,299 L 391,298 L 391,296 L 392,295 L 392,293 L 393,292 L 393,291 L 394,290 L 394,289 L 395,288 L 395,286 L 396,285 L 396,284 L 397,283 L 397,281 L 398,280 L 398,278 L 399,277 L 397,275 L 396,276 L 395,276 L 390,281 L 390,282 L 389,283 L 388,283 L 388,284 L 387,285 L 386,285 L 383,288 L 383,289 L 382,290 L 347,290 L 345,288 L 345,287 L 344,286 L 344,285 L 341,282 L 341,281 L 339,279 L 339,278 L 338,277 L 338,276 L 336,274 L 336,273 L 335,272 L 335,271 L 333,269 L 333,268 L 330,265 L 330,264 L 329,263 L 329,262 L 327,260 L 327,259 L 325,257 L 325,256 L 323,254 L 323,253 L 321,251 L 321,250 Z"/>
<path d="M 148,250 L 146,252 L 146,253 L 144,255 L 144,256 L 142,258 L 142,259 L 140,261 L 140,262 L 138,264 L 138,265 L 137,266 L 137,267 L 134,270 L 134,271 L 132,273 L 132,274 L 131,275 L 131,276 L 128,279 L 128,280 L 126,282 L 126,283 L 124,285 L 124,286 L 122,288 L 122,289 L 121,290 L 85,290 L 84,289 L 84,288 L 79,283 L 78,283 L 76,281 L 76,280 L 72,276 L 69,276 L 69,278 L 70,279 L 70,282 L 71,283 L 71,284 L 72,285 L 72,287 L 73,288 L 73,290 L 74,291 L 74,292 L 75,293 L 75,294 L 76,295 L 76,297 L 77,298 L 77,300 L 78,301 L 102,301 L 103,300 L 104,301 L 105,301 L 106,300 L 112,300 L 113,301 L 117,301 L 118,300 L 133,300 L 136,297 L 136,296 L 137,295 L 137,294 L 139,292 L 139,291 L 142,288 L 142,287 L 144,285 L 144,284 L 146,282 L 146,281 L 148,279 L 148,278 L 151,275 L 151,274 L 152,273 L 152,272 L 153,271 L 153,270 L 157,266 L 157,265 L 159,263 L 159,262 L 161,260 L 161,258 L 158,255 L 157,255 L 156,254 L 155,254 L 154,253 L 153,253 L 150,250 Z"/>
<path d="M 265,232 L 264,233 L 263,233 L 260,236 L 259,236 L 258,237 L 257,237 L 255,239 L 254,239 L 253,240 L 252,240 L 250,242 L 250,254 L 251,255 L 251,267 L 252,267 L 255,270 L 255,271 L 256,272 L 256,324 L 255,325 L 255,337 L 252,340 L 252,341 L 251,342 L 250,342 L 250,343 L 249,344 L 249,396 L 250,397 L 252,397 L 259,390 L 259,365 L 260,364 L 259,363 L 260,362 L 260,361 L 261,360 L 262,360 L 267,355 L 267,354 L 272,349 L 273,349 L 273,348 L 285,336 L 285,306 L 286,305 L 286,292 L 284,290 L 284,289 L 279,284 L 278,284 L 277,283 L 277,282 L 273,278 L 273,277 L 272,276 L 272,272 L 275,269 L 276,269 L 278,267 L 279,267 L 280,266 L 281,266 L 283,264 L 284,264 L 285,263 L 285,261 L 283,259 L 283,258 L 281,256 L 281,255 L 279,253 L 279,252 L 277,250 L 277,249 L 275,247 L 275,246 L 273,244 L 273,243 L 272,242 L 272,241 L 268,237 L 268,236 L 267,235 L 267,234 Z"/>
<path d="M 203,232 L 202,233 L 202,234 L 201,235 L 201,236 L 200,237 L 200,238 L 197,241 L 197,242 L 195,244 L 195,245 L 193,247 L 193,248 L 192,249 L 192,250 L 190,252 L 190,253 L 187,256 L 187,257 L 186,258 L 186,259 L 184,261 L 184,263 L 186,265 L 187,265 L 189,267 L 190,267 L 191,268 L 192,268 L 193,269 L 194,269 L 197,272 L 197,273 L 196,274 L 197,275 L 197,276 L 196,277 L 196,278 L 183,291 L 183,311 L 184,312 L 184,331 L 183,332 L 183,333 L 184,334 L 184,336 L 194,346 L 194,347 L 198,351 L 199,351 L 200,352 L 200,353 L 201,353 L 202,354 L 202,355 L 203,355 L 204,356 L 204,357 L 209,362 L 209,371 L 210,372 L 210,389 L 211,390 L 211,391 L 213,393 L 214,393 L 218,397 L 219,397 L 220,396 L 220,344 L 219,343 L 219,342 L 214,337 L 214,315 L 213,314 L 213,272 L 218,267 L 218,257 L 219,256 L 219,242 L 217,240 L 216,240 L 215,239 L 214,239 L 212,237 L 211,237 L 209,235 L 208,235 L 206,233 L 205,233 L 204,232 Z"/>
<path d="M 230,198 L 225,203 L 224,203 L 224,204 L 223,205 L 223,352 L 224,353 L 224,354 L 231,361 L 233,361 L 233,198 Z"/>
<path d="M 237,197 L 237,250 L 236,251 L 236,360 L 237,361 L 238,361 L 241,358 L 242,358 L 242,357 L 245,354 L 245,353 L 246,352 L 245,351 L 246,350 L 246,232 L 245,231 L 246,230 L 245,229 L 245,227 L 246,226 L 246,204 L 242,200 L 241,200 L 240,199 L 240,198 L 239,198 L 238,197 Z"/>
<path d="M 238,171 L 238,191 L 248,201 L 248,202 L 249,203 L 250,203 L 251,204 L 251,205 L 253,207 L 253,216 L 250,219 L 249,219 L 248,220 L 248,236 L 249,237 L 250,237 L 251,236 L 252,236 L 254,234 L 255,234 L 259,230 L 260,230 L 261,229 L 262,229 L 263,228 L 263,195 L 258,190 L 258,189 L 257,189 L 256,188 L 256,187 L 255,187 L 251,183 L 251,182 L 247,178 L 246,178 L 244,176 L 244,175 L 243,175 L 242,174 L 242,173 L 240,171 Z"/>
<path d="M 230,171 L 229,172 L 228,172 L 225,175 L 225,176 L 222,179 L 221,179 L 221,180 L 219,182 L 218,182 L 218,183 L 207,194 L 207,195 L 206,196 L 206,228 L 207,229 L 208,229 L 209,230 L 210,230 L 212,232 L 213,232 L 216,235 L 217,235 L 219,237 L 220,237 L 221,236 L 221,220 L 220,219 L 219,219 L 216,216 L 216,209 L 217,208 L 216,207 L 221,202 L 221,201 L 224,198 L 225,198 L 229,194 L 229,193 L 231,191 L 231,171 Z"/>
<path d="M 316,110 L 312,114 L 311,114 L 311,115 L 310,116 L 309,116 L 308,117 L 308,118 L 306,120 L 305,120 L 305,121 L 303,123 L 302,123 L 300,125 L 300,126 L 296,130 L 295,130 L 290,135 L 290,136 L 288,138 L 287,138 L 284,141 L 284,142 L 282,144 L 281,144 L 281,145 L 280,146 L 279,146 L 279,147 L 278,148 L 278,164 L 279,165 L 279,166 L 282,169 L 282,218 L 281,219 L 281,221 L 278,224 L 277,224 L 275,226 L 274,226 L 271,229 L 270,229 L 270,232 L 272,234 L 272,235 L 274,237 L 274,238 L 276,240 L 276,241 L 277,242 L 277,243 L 278,244 L 279,244 L 281,242 L 282,242 L 285,239 L 286,239 L 288,237 L 290,237 L 292,235 L 292,224 L 293,223 L 293,221 L 292,220 L 292,211 L 293,210 L 293,203 L 292,202 L 292,199 L 293,198 L 293,163 L 308,148 L 308,147 L 309,146 L 310,146 L 316,140 L 316,139 L 317,138 L 318,138 L 318,112 L 317,111 L 317,110 Z"/>
<path d="M 393,69 L 390,72 L 390,73 L 389,74 L 388,74 L 386,76 L 386,112 L 381,117 L 380,117 L 380,118 L 379,119 L 378,119 L 376,121 L 376,122 L 375,123 L 374,123 L 369,128 L 369,129 L 368,130 L 367,130 L 343,154 L 342,154 L 337,159 L 337,160 L 336,161 L 335,161 L 332,164 L 332,169 L 331,170 L 330,169 L 330,168 L 328,168 L 325,171 L 324,171 L 324,172 L 321,175 L 321,176 L 320,177 L 320,220 L 317,223 L 316,223 L 314,225 L 313,225 L 311,227 L 310,227 L 309,228 L 308,228 L 305,231 L 304,231 L 303,232 L 302,232 L 300,234 L 299,234 L 297,236 L 296,236 L 294,238 L 293,238 L 292,239 L 291,239 L 289,241 L 288,241 L 285,244 L 284,244 L 282,246 L 281,246 L 280,247 L 280,248 L 282,250 L 282,251 L 284,253 L 284,254 L 285,255 L 285,256 L 286,257 L 286,258 L 288,260 L 290,260 L 291,259 L 292,259 L 294,257 L 295,257 L 296,256 L 297,256 L 299,254 L 300,254 L 301,253 L 302,253 L 304,251 L 305,251 L 307,249 L 308,249 L 310,247 L 311,247 L 313,245 L 314,245 L 315,244 L 316,244 L 317,243 L 318,243 L 320,241 L 321,241 L 323,239 L 324,239 L 326,237 L 327,237 L 328,236 L 329,236 L 330,235 L 331,236 L 334,236 L 335,237 L 338,237 L 339,238 L 342,238 L 343,239 L 345,239 L 346,240 L 349,240 L 350,239 L 350,238 L 349,237 L 349,236 L 346,233 L 346,232 L 345,231 L 345,230 L 343,228 L 343,227 L 341,225 L 341,224 L 338,221 L 338,219 L 336,217 L 336,216 L 334,214 L 334,213 L 333,212 L 333,211 L 331,209 L 331,206 L 330,205 L 330,198 L 331,197 L 331,196 L 332,195 L 335,195 L 335,194 L 342,187 L 343,187 L 343,186 L 344,185 L 344,175 L 366,153 L 367,153 L 368,152 L 368,151 L 372,147 L 373,147 L 376,144 L 376,143 L 379,140 L 380,140 L 384,136 L 384,135 L 385,134 L 386,134 L 397,123 L 397,70 L 396,69 Z"/>
<path d="M 71,69 L 70,70 L 71,71 L 70,72 L 70,74 L 71,75 L 70,76 L 70,80 L 71,81 L 71,83 L 70,84 L 70,123 L 77,130 L 78,130 L 83,135 L 83,136 L 84,136 L 101,153 L 102,153 L 103,154 L 103,155 L 105,157 L 106,157 L 108,159 L 108,160 L 109,160 L 111,162 L 111,163 L 112,164 L 113,164 L 114,165 L 114,166 L 115,166 L 124,175 L 124,185 L 125,186 L 125,187 L 126,187 L 134,195 L 135,195 L 136,194 L 137,195 L 137,209 L 136,210 L 136,211 L 135,212 L 135,213 L 132,216 L 132,217 L 131,218 L 131,219 L 130,220 L 130,221 L 126,225 L 126,226 L 124,228 L 124,229 L 123,230 L 123,231 L 121,233 L 121,234 L 119,236 L 119,237 L 118,238 L 118,239 L 119,240 L 121,240 L 122,239 L 125,239 L 126,238 L 129,238 L 130,237 L 133,237 L 134,236 L 137,236 L 138,235 L 139,236 L 140,236 L 141,237 L 142,237 L 144,239 L 145,239 L 146,240 L 147,240 L 149,242 L 150,242 L 152,244 L 153,244 L 154,245 L 155,245 L 157,247 L 158,247 L 159,248 L 160,248 L 163,251 L 164,251 L 165,252 L 166,252 L 167,253 L 168,253 L 170,255 L 171,255 L 173,257 L 174,257 L 175,258 L 176,258 L 178,260 L 181,260 L 182,259 L 182,258 L 183,257 L 183,256 L 184,255 L 184,254 L 187,251 L 187,250 L 188,249 L 188,246 L 187,246 L 186,245 L 185,245 L 182,242 L 181,242 L 179,240 L 178,240 L 177,239 L 176,239 L 174,237 L 173,237 L 171,235 L 170,235 L 167,232 L 166,232 L 165,231 L 164,231 L 163,230 L 162,230 L 159,227 L 158,227 L 157,226 L 156,226 L 154,224 L 153,224 L 152,223 L 151,223 L 148,220 L 148,177 L 147,176 L 147,175 L 145,173 L 145,172 L 143,170 L 142,170 L 140,168 L 138,168 L 138,182 L 137,183 L 136,182 L 136,164 L 133,161 L 132,161 L 130,159 L 130,158 L 127,155 L 126,155 L 109,138 L 108,138 L 107,137 L 107,136 L 104,133 L 103,133 L 81,111 L 81,76 L 74,69 Z"/>
<path d="M 320,9 L 319,10 L 319,84 L 320,85 L 320,135 L 321,135 L 322,134 L 323,134 L 323,132 L 324,131 L 325,131 L 331,125 L 331,124 L 333,122 L 334,122 L 338,118 L 338,98 L 333,93 L 332,93 L 329,90 L 329,17 L 321,9 Z"/>
<path d="M 147,9 L 139,17 L 139,90 L 136,93 L 135,93 L 130,98 L 130,117 L 131,118 L 131,119 L 134,122 L 135,122 L 138,125 L 138,126 L 142,130 L 143,130 L 144,131 L 144,132 L 147,135 L 149,133 L 150,134 L 150,138 L 151,138 L 154,141 L 154,142 L 157,145 L 158,145 L 161,148 L 161,149 L 173,161 L 174,161 L 175,162 L 175,164 L 176,165 L 176,235 L 177,236 L 178,236 L 179,237 L 180,237 L 181,238 L 182,238 L 184,240 L 185,240 L 188,243 L 189,243 L 190,244 L 191,244 L 191,243 L 193,241 L 193,240 L 195,238 L 195,237 L 197,235 L 197,234 L 198,233 L 198,232 L 199,231 L 199,229 L 198,228 L 197,228 L 195,226 L 194,226 L 192,224 L 191,224 L 190,223 L 189,223 L 187,221 L 187,169 L 190,166 L 190,147 L 157,114 L 156,114 L 153,111 L 153,110 L 152,110 L 151,111 L 151,129 L 150,130 L 150,132 L 149,133 L 148,132 L 148,89 L 149,88 L 149,10 L 148,9 Z"/>
</svg>